<?xml version="1.0" encoding="utf-8"?>
<!-- Generator: Adobe Illustrator 16.0.0, SVG Export Plug-In . SVG Version: 6.00 Build 0)  -->
<!DOCTYPE svg PUBLIC "-//W3C//DTD SVG 1.1//EN" "http://www.w3.org/Graphics/SVG/1.1/DTD/svg11.dtd">
<svg version="1.1" id="Layer_1" xmlns="http://www.w3.org/2000/svg" xmlns:xlink="http://www.w3.org/1999/xlink" x="0px" y="0px"
	 width="82.297px" height="58.26px" viewBox="0 0 82.297 58.26" enable-background="new 0 0 82.297 58.26" xml:space="preserve">
<path d="M75.097,58.169h0.117l0.263-0.439c0.575,0.426,1.14,0.638,1.863,0.638c1.245,0,2.543-0.67,2.543-2.062
	c0-1.394-1.234-1.946-2.341-2.403c-0.66-0.276-1.416-0.564-1.416-1.404c0-0.69,0.563-1.127,1.244-1.127
	c1.039,0,1.541,0.798,1.787,1.68h0.236l-0.052-1.841h-0.11l-0.246,0.416c-0.479-0.34-1.023-0.542-1.611-0.542
	c-1.162,0-2.11,0.702-2.11,1.914s1.033,1.724,2.004,2.095c0.772,0.309,1.615,0.691,1.615,1.659c0,0.861-0.694,1.329-1.525,1.329
	c-1.227,0-1.803-0.904-2.016-1.978h-0.245V58.169z M74.36,51.209h-6.535v1.652h0.242c0.043-1.266,0.553-1.32,1.604-1.32
	c0.425,0,0.893-0.031,0.893,0.288v5.045c0,0.788-0.148,1.086-1.179,1.129v0.241c0.573-0.01,1.126-0.032,1.688-0.042
	c0.584,0.01,1.182,0.032,1.77,0.042v-0.241c-1.037-0.043-1.186-0.341-1.186-1.129v-5.045c0-0.34,0.641-0.288,1.037-0.288
	c1.004,0,1.41,0.277,1.475,1.32h0.287L74.36,51.209z M64.987,54.793c1.057-0.094,1.922-0.681,1.922-1.833
	c0-1.479-1.215-1.754-2.436-1.754c-0.45,0.011-0.91,0.032-1.357,0.042c-0.605-0.01-1.222-0.031-1.828-0.042v0.242
	c0.34,0,0.787-0.011,0.904,0.362c0.096,0.288,0.096,1.076,0.096,1.418v3c0,0.34,0,1.126-0.096,1.413
	c-0.117,0.361-0.564,0.361-0.904,0.361v0.241c0.531-0.01,1.063-0.032,1.595-0.042c0.509,0.01,1.013,0.032,1.505,0.042v-0.241
	c-0.342,0-0.782,0.011-0.91-0.361c-0.096-0.287-0.096-1.073-0.096-1.413v-1.255c0.566,0,0.523,0.063,0.878,0.468l1.772,2.189
	l0.496,0.613c0.266-0.01,0.53-0.032,0.797-0.042c0.318,0.01,0.639,0.032,0.957,0.042v-0.241c-0.543-0.085-0.703-0.233-1.043-0.627
	L64.987,54.793z M63.382,51.905c0-0.118-0.021-0.32,0.117-0.384c0.097-0.042,0.567-0.012,0.697-0.012
	c0.963,0,1.498,0.661,1.498,1.601c0,1.546-0.975,1.578-2.312,1.578V51.905z M53.694,54.096l1.688-4.289l1.673,4.289H53.694z
	 M53.497,54.58h3.756l0.594,1.567c0.136,0.35,0.304,0.807,0.304,1.187c0,0.593-0.745,0.563-1.171,0.578v0.348
	c0.73-0.015,1.475-0.044,2.205-0.059c0.714,0.015,1.443,0.044,2.159,0.059v-0.348c-0.517-0.061-0.974-0.122-1.308-0.562
	c-0.274-0.351-0.608-1.278-0.791-1.675l-3.071-7.724h-0.517l-2.326,5.977c-0.428,0.972-0.838,1.931-1.264,2.904
	c-0.304,0.745-0.639,0.989-1.459,1.08v0.348c0.532-0.015,1.049-0.044,1.58-0.059c0.562,0.015,1.11,0.044,1.674,0.059v-0.348
	c-0.457-0.045-1.232,0-1.232-0.654c0-0.594,0.502-1.72,0.73-2.298L53.497,54.58z M41.697,56.225c0,0.342,0,1.13-0.106,1.417
	c-0.138,0.361-0.575,0.361-0.916,0.361v0.243c1.828-0.011,3.672-0.014,5.505-0.046c0.181,0.022,0.373,0.035,0.549,0.046l0.095-1.883
	h-0.26c-0.096,0.596-0.16,1-0.693,1.33c-0.437,0.287-1.013,0.266-1.514,0.266c-1.354,0-1.566-0.224-1.566-1.586v-3.148
	c0-0.341,0-1.127,0.106-1.415c0.14-0.361,0.576-0.361,0.917-0.361v-0.242c-0.544,0.011-1.076,0.032-1.617,0.042
	c-0.51-0.01-1.011-0.031-1.521-0.042v0.242c0.341,0,0.778,0,0.916,0.361c0.106,0.288,0.106,1.074,0.106,1.415V56.225z
	 M35.292,55.342l1.182-3.004l1.171,3.004H35.292z M35.157,55.675h2.628l0.414,1.096c0.096,0.244,0.213,0.562,0.213,0.829
	c0,0.414-0.521,0.393-0.819,0.403v0.241c0.511-0.01,1.032-0.032,1.543-0.042c0.5,0.01,1.01,0.032,1.51,0.042v-0.241
	c-0.361-0.043-0.681-0.085-0.915-0.394c-0.191-0.244-0.425-0.894-0.553-1.169l-2.149-5.402h-0.361l-1.628,4.188
	c-0.3,0.673-0.588,1.343-0.885,2.022c-0.212,0.521-0.446,0.691-1.019,0.755v0.241c0.371-0.01,0.732-0.032,1.104-0.042
	c0.393,0.01,0.776,0.032,1.17,0.042v-0.241c-0.319-0.031-0.862,0-0.862-0.457c0-0.415,0.351-1.202,0.511-1.605L35.157,55.675z
	 M30.345,54.793c1.056-0.094,1.922-0.681,1.922-1.833c0-1.479-1.215-1.754-2.436-1.754c-0.45,0.011-0.91,0.032-1.358,0.042
	c-0.604-0.01-1.221-0.031-1.828-0.042v0.242c0.341,0,0.788-0.011,0.905,0.362c0.096,0.288,0.096,1.076,0.096,1.418v3
	c0,0.34,0,1.126-0.096,1.413c-0.117,0.361-0.564,0.361-0.905,0.361v0.241c0.532-0.01,1.064-0.032,1.595-0.042
	c0.509,0.01,1.013,0.032,1.506,0.042v-0.241c-0.343,0-0.782,0.011-0.911-0.361c-0.096-0.287-0.096-1.073-0.096-1.413v-1.255
	c0.567,0,0.525,0.063,0.878,0.468l1.773,2.189l0.497,0.613c0.264-0.01,0.529-0.032,0.795-0.042c0.319,0.01,0.639,0.032,0.958,0.042
	v-0.241c-0.543-0.085-0.702-0.233-1.043-0.627L30.345,54.793z M28.739,51.905c0-0.118-0.022-0.32,0.118-0.384
	c0.096-0.042,0.567-0.012,0.696-0.012c0.964,0,1.499,0.661,1.499,1.601c0,1.546-0.974,1.578-2.313,1.578V51.905z M21.045,56.204
	c0,0.342,0,1.132-0.107,1.421c-0.138,0.362-0.575,0.362-0.915,0.362v0.243h5.793l0.096-1.716h-0.245
	c-0.138,1.269-0.858,1.407-1.961,1.429c-0.43,0.011-1.096-0.01-1.375-0.384c-0.193-0.257-0.193-0.758-0.193-1.077v-1.75
	c1.031,0,1.6,0.053,1.75,1.173h0.242c-0.011-0.438-0.023-0.885-0.044-1.322c0.021-0.478,0.033-0.967,0.044-1.444h-0.242
	c-0.064,0.765-0.279,1.37-1.75,1.307v-2.519c0-0.232-0.011-0.35,0.01-0.393c0.033-0.053,0.108-0.042,0.269-0.042h0.773
	c1.131,0,1.683,0.074,1.885,1.317h0.241v-1.604h-5.293v0.287c0.34,0,0.777,0,0.915,0.361c0.107,0.287,0.107,1.072,0.107,1.413
	V56.204z M14.231,56.229c0,0.341,0,1.126-0.095,1.413c-0.117,0.371-0.565,0.36-0.905,0.36v0.243
	c0.596-0.011,1.202-0.035,1.796-0.046c0.469,0.011,0.928,0.035,1.399,0.046c0.62,0,1.39,0.021,1.964-0.277
	c0.592-0.317,1.025-0.838,1.025-1.537c0-0.616-0.317-1.125-0.813-1.465c-0.413-0.286-0.957-0.383-1.556-0.436V54.51
	c0.81-0.244,1.594-0.66,1.594-1.632c0-1.42-1.496-1.704-2.62-1.672c-0.428,0.011-0.844,0.032-1.269,0.042
	c-0.509-0.01-1.009-0.031-1.52-0.042v0.242c0.34,0,0.788-0.011,0.905,0.363c0.095,0.288,0.095,1.077,0.095,1.419V56.229z
	 M15.326,54.701h0.331c0.545,0,1.176-0.031,1.668,0.223c0.556,0.298,0.77,0.808,0.77,1.411c0,1.008-0.47,1.624-1.518,1.624
	c-0.407,0-0.941,0.01-1.123-0.445c-0.128-0.318-0.128-0.977-0.128-1.338V54.701z M15.326,52.012c0-0.086-0.011-0.384,0.064-0.448
	c0.085-0.074,0.492-0.054,0.631-0.054c0.952,0,1.466,0.471,1.466,1.421c0,0.513-0.096,0.972-0.546,1.26
	c-0.417,0.246-0.802,0.224-1.273,0.224h-0.342V52.012z M10.476,56.227c0,0.34,0,1.128-0.106,1.415
	c-0.139,0.361-0.575,0.361-0.916,0.361v0.241c0.532-0.01,1.075-0.032,1.606-0.042c0.509,0.01,1.031,0.032,1.531,0.042v-0.241
	c-0.34,0-0.777,0-0.915-0.361c-0.107-0.287-0.107-1.075-0.107-1.415v-3.001c0-0.342,0-1.128,0.107-1.416
	c0.138-0.361,0.575-0.361,0.915-0.361v-0.242c-0.532,0.011-1.064,0.032-1.605,0.042c-0.51-0.01-1.021-0.031-1.532-0.042v0.242
	c0.341,0,0.777,0,0.916,0.361c0.106,0.288,0.106,1.074,0.106,1.416V56.227z M1.534,55.372c0,0.487,0,1.612-0.152,2.023
	c-0.198,0.517-0.821,0.517-1.308,0.517v0.348c2.614-0.015,5.246-0.013,7.864-0.059c0.258,0.03,0.532,0.044,0.793,0.059l0.137-2.689
	H8.485C8.348,56.422,8.257,57,7.496,57.472c-0.624,0.41-1.445,0.38-2.161,0.38c-1.932,0-2.236-0.319-2.236-2.267v-4.502
	c0-0.486,0-1.612,0.152-2.023c0.198-0.518,0.821-0.518,1.308-0.518v-0.348c-0.776,0.015-1.536,0.044-2.311,0.059
	c-0.729-0.015-1.444-0.044-2.174-0.059v0.348c0.487,0,1.11,0,1.308,0.518c0.152,0.411,0.152,1.537,0.152,2.023V55.372z"/>
<g>
	<path d="M6.031,44.846H5.925l-0.116-0.503c-0.648,0.454-1.18,0.609-1.964,0.609c-1.451,0-2.409-1.016-2.409-2.457
		c0-1.983,1.606-4.141,3.706-4.141c0.628,0,1.016,0.184,1.538,0.503l0.338-0.349h0.097l-0.368,1.8H6.554
		c-0.058-0.919-0.261-1.741-1.354-1.741c-1.818,0-2.795,2.814-2.795,4.305c0,1.064,0.483,1.867,1.635,1.867
		c1.287,0,1.771-0.938,2.302-1.935h0.203L6.031,44.846z"/>
	<path d="M7.098,43.539c0-1.122,0.929-2.883,2.235-2.883c0.899,0,1.335,0.755,1.335,1.567c0,1.132-0.967,2.729-2.225,2.729
		C7.601,44.952,7.098,44.371,7.098,43.539z M9.971,41.585c0-0.348-0.193-0.716-0.59-0.716c-1.016,0-1.587,2.352-1.587,3.145
		c0,0.436,0.203,0.726,0.658,0.726C9.516,44.739,9.971,42.398,9.971,41.585z"/>
	<path d="M12.536,42.05c-0.165,0.542-0.58,1.809-0.58,2.331c0,0.116,0.039,0.281,0.184,0.281c0.319,0,0.861-0.929,0.987-1.22
		l0.223,0.106c-0.281,0.532-0.697,1.403-1.413,1.403c-0.455,0-0.677-0.339-0.677-0.765c0-0.357,0.251-1.18,0.368-1.548l0.987-3.24
		c0.029-0.097,0.097-0.291,0.097-0.397c0-0.348-0.474-0.29-0.697-0.31l0.058-0.213l1.616-0.097L12.536,42.05z"/>
	<path d="M15.052,42.05c-0.164,0.542-0.58,1.809-0.58,2.331c0,0.116,0.039,0.281,0.184,0.281c0.319,0,0.861-0.929,0.987-1.22
		l0.223,0.106c-0.281,0.532-0.697,1.403-1.413,1.403c-0.455,0-0.677-0.339-0.677-0.765c0-0.357,0.251-1.18,0.368-1.548l0.987-3.24
		c0.029-0.097,0.097-0.291,0.097-0.397c0-0.348-0.474-0.29-0.697-0.31l0.058-0.213l1.616-0.097L15.052,42.05z"/>
	<path d="M18.864,43.704c-0.396,0.59-0.948,1.248-1.722,1.248c-0.677,0-1.083-0.436-1.083-1.104c0-1.219,1.161-3.192,2.515-3.192
		c0.396,0,0.696,0.262,0.696,0.668c0,1.016-1.422,1.587-2.196,1.905l-0.155,0.068c-0.087,0.28-0.165,0.58-0.165,0.89
		c0,0.3,0.145,0.552,0.474,0.552c0.648,0,1.112-0.696,1.461-1.161L18.864,43.704z M18.739,41.188c0-0.193-0.106-0.319-0.3-0.319
		c-0.706,0-1.287,1.587-1.441,2.167C17.684,42.736,18.739,42.05,18.739,41.188z"/>
	<path d="M20.762,47.438c-0.793,0-1.944-0.271-1.944-1.238c0-0.396,0.319-0.716,0.716-0.716c0.145,0,0.261,0.048,0.387,0.116
		c-0.29,0.105-0.474,0.357-0.474,0.667c0,0.765,0.745,0.958,1.393,0.958c0.58,0,1.422-0.175,1.422-0.9
		c0-0.657-0.726-0.696-1.219-0.764c-0.552-0.087-1.693-0.203-1.693-0.968c0-0.58,0.57-0.822,1.054-0.919
		c-0.368-0.223-0.648-0.6-0.648-1.035c0-0.967,0.88-1.983,1.886-1.983c0.406,0,0.716,0.146,0.967,0.455
		c0.194-0.203,0.455-0.406,0.755-0.406s0.609,0.213,0.609,0.522c0,0.203-0.165,0.387-0.377,0.387c-0.165,0-0.3-0.126-0.319-0.29
		c-0.019-0.116,0-0.232-0.145-0.232c-0.165,0-0.3,0.146-0.406,0.242c0.068,0.164,0.106,0.339,0.106,0.513
		c0,1.045-0.784,2.002-1.857,2.021c-0.28,0-1.045,0.01-1.045,0.406c0,0.861,2.864-0.01,2.864,1.8
		C22.793,47.139,21.652,47.438,20.762,47.438z M22.136,41.566c0-0.339-0.184-0.697-0.552-0.697c-0.745,0-1.132,1.49-1.132,2.08
		c0,0.358,0.203,0.706,0.6,0.706C21.835,43.655,22.136,42.166,22.136,41.566z"/>
	<path d="M26.413,43.704c-0.396,0.59-0.948,1.248-1.722,1.248c-0.677,0-1.083-0.436-1.083-1.104c0-1.219,1.161-3.192,2.515-3.192
		c0.396,0,0.696,0.262,0.696,0.668c0,1.016-1.422,1.587-2.196,1.905l-0.155,0.068c-0.087,0.28-0.165,0.58-0.165,0.89
		c0,0.3,0.145,0.552,0.474,0.552c0.648,0,1.112-0.696,1.461-1.161L26.413,43.704z M26.287,41.188c0-0.193-0.106-0.319-0.3-0.319
		c-0.706,0-1.287,1.587-1.441,2.167C25.232,42.736,26.287,42.05,26.287,41.188z"/>
	<path d="M29.549,43.539c0-1.122,0.929-2.883,2.235-2.883c0.899,0,1.335,0.755,1.335,1.567c0,1.132-0.968,2.729-2.225,2.729
		C30.052,44.952,29.549,44.371,29.549,43.539z M32.422,41.585c0-0.348-0.193-0.716-0.59-0.716c-1.016,0-1.587,2.352-1.587,3.145
		c0,0.436,0.204,0.726,0.658,0.726C31.968,44.739,32.422,42.398,32.422,41.585z"/>
	<path d="M34.726,44.158c-0.261,1.055-0.696,3.28-2.186,3.28c-0.339,0-0.822-0.155-0.822-0.562c0-0.145,0.106-0.271,0.261-0.271
		c0.425,0,0.174,0.619,0.638,0.619c0.436,0,0.687-0.697,0.812-1.016l1.335-5.205h-0.793l0.068-0.213h0.784
		c0.29-0.958,0.696-2.409,1.925-2.409c0.329,0,0.822,0.185,0.822,0.581c0,0.145-0.087,0.28-0.242,0.28
		c-0.223,0-0.29-0.174-0.338-0.349c-0.039-0.174-0.087-0.3-0.291-0.3c-0.745,0-1.006,1.684-1.151,2.196h0.842l-0.068,0.213H35.5
		L34.726,44.158z"/>
</g>
<g>
	<defs>
		<rect id="SVGID_1_" x="0.217" width="80.412" height="23.967"/>
	</defs>
	<clipPath id="SVGID_2_">
		<use xlink:href="#SVGID_1_"  overflow="visible"/>
	</clipPath>
	<path clip-path="url(#SVGID_2_)" fill-rule="evenodd" clip-rule="evenodd" d="M6.853,2.064v9.593c4.593,0,7.938-0.111,7.938-5.439
		c0-3.234-1.838-5.513-5.145-5.513c-0.441,0-2.059-0.11-2.389,0.037C6.779,0.962,6.853,1.661,6.853,2.064 M12.365,12.023
		l7.791,8.931c1.176,1.359,1.727,1.875,3.601,2.168v0.846c-1.102-0.037-2.205-0.111-3.307-0.147
		c-0.919,0.036-1.838,0.11-2.756,0.147l-1.728-2.132l-6.1-7.57c-1.213-1.396-1.066-1.617-3.013-1.617v4.336
		c0,1.177,0,3.896,0.33,4.889c0.441,1.286,1.948,1.249,3.124,1.249v0.846c-1.69-0.037-3.418-0.111-5.182-0.147
		c-1.837,0.036-3.675,0.11-5.512,0.147v-0.846c1.176,0,2.719,0,3.124-1.249c0.33-0.992,0.33-3.712,0.33-4.889V6.622
		c0-1.177,0-3.896-0.33-4.889C2.332,0.448,0.789,0.484-0.387,0.484v-0.846C1.707-0.324,3.839-0.25,5.934-0.213
		c1.543-0.037,3.124-0.111,4.667-0.148c4.19,0,8.416,0.956,8.416,6.064C19.017,9.672,16.003,11.692,12.365,12.023"/>
	<path clip-path="url(#SVGID_2_)" fill-rule="evenodd" clip-rule="evenodd" d="M38.224,16.985c0,1.176,0,3.895-0.367,4.888
		c-0.478,1.249-1.985,1.249-3.161,1.249v0.845c1.837-0.035,3.712-0.109,5.549-0.146c1.764,0.037,3.565,0.111,5.292,0.146v-0.845
		c-1.176,0-2.682,0-3.159-1.249c-0.369-0.993-0.369-3.712-0.369-4.888V6.622c0-1.177,0-3.896,0.369-4.888
		c0.478-1.249,1.983-1.249,3.159-1.249V-0.36c-1.837,0.036-3.675,0.109-5.549,0.146c-1.764-0.037-3.528-0.11-5.292-0.146v0.846
		c1.176,0,2.683,0,3.161,1.249c0.367,0.992,0.367,3.711,0.367,4.888V16.985z"/>
	<path clip-path="url(#SVGID_2_)" fill-rule="evenodd" clip-rule="evenodd" d="M80.903-0.36H58.339v5.732h0.846
		c0.146-4.373,1.91-4.557,5.549-4.557c1.47,0,3.087-0.11,3.087,0.992v17.419c0,2.72-0.515,3.749-4.079,3.896v0.845
		c1.984-0.035,3.896-0.109,5.843-0.146c2.022,0.037,4.079,0.111,6.101,0.146v-0.845c-3.564-0.146-4.078-1.176-4.078-3.896V1.808
		c0-1.177,2.205-0.992,3.563-0.992c3.455,0,4.851,0.956,5.071,4.557h0.993L80.903-0.36z"/>
	<path clip-path="url(#SVGID_2_)" fill-rule="evenodd" clip-rule="evenodd" d="M25.218,11.845c0-0.786,0.637-1.423,1.423-1.423
		c0.787,0,1.424,0.637,1.424,1.423s-0.637,1.423-1.424,1.423C25.855,13.268,25.218,12.631,25.218,11.845"/>
	<path clip-path="url(#SVGID_2_)" fill-rule="evenodd" clip-rule="evenodd" d="M52.296,11.708c0-0.786,0.637-1.423,1.424-1.423
		c0.785,0,1.424,0.637,1.424,1.423s-0.639,1.423-1.424,1.423C52.933,13.131,52.296,12.494,52.296,11.708"/>
</g>
<line fill="none" stroke="#000000" stroke-width="0.45" x1="0" y1="32.624" x2="82.297" y2="32.624"/>
</svg>
