<?xml version="1.0" encoding="utf-8"?>
<!-- Generator: Adobe Illustrator 16.0.0, SVG Export Plug-In . SVG Version: 6.00 Build 0)  -->
<!DOCTYPE svg PUBLIC "-//W3C//DTD SVG 1.1//EN" "http://www.w3.org/Graphics/SVG/1.1/DTD/svg11.dtd">
<svg version="1.1" id="Layer_1" xmlns="http://www.w3.org/2000/svg" xmlns:xlink="http://www.w3.org/1999/xlink" x="0px" y="0px"
	 width="129.994px" height="71.611px" viewBox="0 0 129.994 71.611" enable-background="new 0 0 129.994 71.611"
	 xml:space="preserve">
<g>
	<defs>
		<rect id="SVGID_1_" x="0.22" y="0.001" width="80.412" height="23.967"/>
	</defs>
	<clipPath id="SVGID_2_">
		<use xlink:href="#SVGID_1_"  overflow="visible"/>
	</clipPath>
	<path clip-path="url(#SVGID_2_)" fill-rule="evenodd" clip-rule="evenodd" d="M6.855,2.065v9.592c4.593,0,7.938-0.111,7.938-5.439
		c0-3.234-1.838-5.513-5.145-5.513c-0.441,0-2.059-0.11-2.389,0.037C6.781,0.962,6.855,1.662,6.855,2.065 M12.367,12.024l7.791,8.93
		c1.176,1.36,1.727,1.875,3.601,2.168v0.846c-1.102-0.037-2.205-0.111-3.307-0.147c-0.919,0.036-1.838,0.11-2.756,0.147
		l-1.728-2.132l-6.1-7.57c-1.213-1.397-1.066-1.617-3.013-1.617v4.336c0,1.176,0,3.896,0.33,4.888
		c0.441,1.286,1.948,1.249,3.124,1.249v0.846c-1.69-0.037-3.418-0.111-5.182-0.147c-1.837,0.036-3.675,0.11-5.512,0.147v-0.846
		c1.176,0,2.719,0,3.124-1.249c0.33-0.992,0.33-3.712,0.33-4.888V6.623c0-1.176,0-3.896-0.33-4.888
		C2.334,0.449,0.792,0.485-0.385,0.485V-0.36C1.709-0.323,3.841-0.25,5.937-0.212C7.479-0.25,9.061-0.323,10.604-0.36
		c4.19,0,8.416,0.956,8.416,6.064C19.02,9.672,16.005,11.693,12.367,12.024"/>
	<path clip-path="url(#SVGID_2_)" fill-rule="evenodd" clip-rule="evenodd" d="M38.227,16.986c0,1.176,0,3.895-0.367,4.888
		c-0.478,1.249-1.985,1.249-3.161,1.249v0.845c1.837-0.036,3.712-0.11,5.549-0.147c1.764,0.037,3.565,0.111,5.292,0.147v-0.845
		c-1.176,0-2.682,0-3.16-1.249c-0.368-0.993-0.368-3.712-0.368-4.888V6.623c0-1.177,0-3.896,0.368-4.888
		c0.478-1.249,1.984-1.249,3.16-1.249V-0.36c-1.837,0.037-3.675,0.11-5.549,0.147c-1.764-0.037-3.528-0.11-5.292-0.147v0.846
		c1.176,0,2.683,0,3.161,1.249c0.367,0.992,0.367,3.711,0.367,4.888V16.986z"/>
	<path clip-path="url(#SVGID_2_)" fill-rule="evenodd" clip-rule="evenodd" d="M80.906-0.36H58.342v5.733h0.845
		C59.334,1,61.098,0.816,64.736,0.816c1.469,0,3.086-0.11,3.086,0.992v17.419c0,2.72-0.514,3.749-4.079,3.896v0.845
		c1.985-0.036,3.896-0.11,5.843-0.147c2.022,0.037,4.079,0.111,6.1,0.147v-0.845c-3.563-0.147-4.077-1.176-4.077-3.896V1.808
		c0-1.176,2.204-0.992,3.563-0.992c3.455,0,4.851,0.956,5.071,4.557h0.992L80.906-0.36z"/>
	<path clip-path="url(#SVGID_2_)" fill-rule="evenodd" clip-rule="evenodd" d="M25.221,11.845c0-0.786,0.637-1.423,1.423-1.423
		c0.787,0,1.424,0.637,1.424,1.423s-0.637,1.423-1.424,1.423C25.857,13.268,25.221,12.631,25.221,11.845"/>
	<path clip-path="url(#SVGID_2_)" fill-rule="evenodd" clip-rule="evenodd" d="M52.299,11.708c0-0.786,0.637-1.423,1.423-1.423
		c0.786,0,1.424,0.637,1.424,1.423c0,0.786-0.638,1.423-1.424,1.423C52.936,13.132,52.299,12.495,52.299,11.708"/>
</g>
<g>
	<defs>
		<rect id="SVGID_3_" width="129.994" height="71.611"/>
	</defs>
	<clipPath id="SVGID_4_">
		<use xlink:href="#SVGID_3_"  overflow="visible"/>
	</clipPath>
	
		<line clip-path="url(#SVGID_4_)" fill="none" stroke="#000000" stroke-width="0.45" x1="0.003" y1="32.625" x2="129.734" y2="32.625"/>
	<path clip-path="url(#SVGID_4_)" d="M126.132,42.551c1.879,0,2.541,1.754,2.541,3.35c0,1.585-0.577,3.36-2.478,3.36
		c-1.942,0-2.604-1.659-2.604-3.329C123.591,44.359,124.285,42.551,126.132,42.551 M126.132,49.548c2.156,0,3.862-1.51,3.862-3.689
		c0-2.106-1.78-3.595-3.819-3.595c-2.061,0-3.905,1.553-3.905,3.668C122.27,48.071,124.05,49.548,126.132,49.548 M115.077,47.194
		c0,0.415,0,1.086-0.085,1.469c-0.107,0.457-0.501,0.479-0.916,0.521v0.242c0.394-0.011,0.788-0.032,1.181-0.043
		c0.403,0.011,0.818,0.032,1.223,0.043v-0.242c-0.394-0.042-0.745-0.021-0.926-0.436c-0.16-0.362-0.16-1.16-0.16-1.554v-3.575h0.022
		l4.16,5.045c0.233,0.299,0.468,0.597,0.701,0.884h0.317v-4.588c0-0.426,0.022-1.521,0.128-1.863
		c0.139-0.457,0.415-0.425,0.81-0.468v-0.241c-0.395,0.011-0.757,0.031-1.127,0.042c-0.394-0.011-0.776-0.031-1.171-0.042v0.241
		c0.532,0.085,0.82,0.043,0.947,0.639c0.096,0.437,0.096,1.182,0.096,1.64v2.959h-0.021l-4.49-5.479
		c-0.276,0.011-0.562,0.031-0.839,0.042c-0.341-0.011-0.671-0.031-1.011-0.042v0.241c0.574,0.011,0.83,0.17,1.16,0.639V47.194z
		 M108.565,46.523l1.183-3.005l1.171,3.005H108.565z M108.43,46.856h2.628l0.415,1.095c0.095,0.245,0.212,0.562,0.212,0.829
		c0,0.415-0.521,0.393-0.818,0.403v0.242c0.511-0.011,1.031-0.032,1.543-0.043c0.5,0.011,1.01,0.032,1.51,0.043v-0.242
		c-0.361-0.042-0.681-0.085-0.915-0.393c-0.191-0.245-0.425-0.893-0.553-1.17l-2.149-5.401h-0.361l-1.628,4.187
		c-0.3,0.673-0.588,1.343-0.885,2.022c-0.212,0.521-0.446,0.691-1.019,0.755v0.242c0.371-0.011,0.731-0.032,1.104-0.043
		c0.394,0.011,0.776,0.032,1.17,0.043v-0.242c-0.318-0.031-0.862,0-0.862-0.457c0-0.414,0.352-1.2,0.512-1.604L108.43,46.856z
		 M101.589,49.349h0.117l0.263-0.438c0.575,0.425,1.139,0.638,1.863,0.638c1.245,0,2.544-0.67,2.544-2.062
		c0-1.394-1.235-1.946-2.342-2.404c-0.66-0.276-1.415-0.563-1.415-1.403c0-0.69,0.563-1.127,1.245-1.127
		c1.036,0,1.539,0.797,1.784,1.681h0.237l-0.052-1.842h-0.11l-0.245,0.416c-0.48-0.34-1.024-0.542-1.611-0.542
		c-1.163,0-2.111,0.701-2.111,1.914c0,1.212,1.033,1.723,2.005,2.095c0.771,0.309,1.614,0.691,1.614,1.658
		c0,0.862-0.693,1.33-1.525,1.33c-1.227,0-1.803-0.903-2.016-1.978h-0.245V49.349z M98.652,47.407c0,0.341,0,1.128-0.106,1.415
		c-0.138,0.361-0.575,0.361-0.915,0.361v0.242c0.532-0.011,1.075-0.032,1.604-0.043c0.511,0.011,1.031,0.032,1.532,0.043v-0.242
		c-0.341,0-0.777,0-0.916-0.361c-0.105-0.287-0.105-1.074-0.105-1.415v-3.001c0-0.34,0-1.128,0.105-1.415
		c0.139-0.362,0.575-0.362,0.916-0.362v-0.241c-0.533,0.011-1.064,0.031-1.605,0.042c-0.51-0.011-1.021-0.031-1.531-0.042v0.241
		c0.34,0,0.777,0,0.915,0.362c0.106,0.287,0.106,1.075,0.106,1.415V47.407z M91.976,47.406c0,0.342,0,1.129-0.105,1.416
		c-0.139,0.361-0.575,0.361-0.915,0.361v0.243c1.828-0.011,3.671-0.013,5.504-0.045c0.181,0.021,0.373,0.034,0.549,0.045
		l0.094-1.883h-0.259c-0.096,0.596-0.16,1-0.693,1.33c-0.437,0.287-1.013,0.266-1.514,0.266c-1.353,0-1.566-0.223-1.566-1.585
		v-3.148c0-0.341,0-1.128,0.106-1.415c0.139-0.362,0.576-0.362,0.917-0.362v-0.241c-0.544,0.011-1.077,0.031-1.618,0.042
		c-0.509-0.011-1.009-0.031-1.52-0.042v0.241c0.34,0,0.776,0,0.915,0.362c0.105,0.287,0.105,1.074,0.105,1.415V47.406z
		 M86.317,42.551c1.88,0,2.541,1.754,2.541,3.35c0,1.585-0.575,3.36-2.477,3.36c-1.942,0-2.604-1.659-2.604-3.329
		C83.777,44.359,84.472,42.551,86.317,42.551 M86.317,49.548c2.157,0,3.862-1.51,3.862-3.689c0-2.106-1.78-3.595-3.819-3.595
		c-2.06,0-3.904,1.553-3.904,3.668C82.456,48.071,84.236,49.548,86.317,49.548 M80.393,39.466h-0.168l-0.322,0.684
		c-0.912-0.685-2.038-0.957-3.164-0.957c-3.181,0-5.322,2.355-5.322,5.46c0,3.01,2.142,4.956,5.108,4.956
		c0.868,0,1.613-0.183,2.39-0.576c0.941-0.519,1.033-0.64,2.142-0.64v-1.612c0-0.761,0.121-1.172,0.943-1.157v-0.348h-3.983v0.348
		c0.928,0.076,1.309,0.274,1.309,1.294c0,1.567-1.02,2.282-2.541,2.282c-2.586,0-3.469-2.237-3.469-4.518
		c0-2.403,0.64-5.142,3.605-5.142c1.766,0,2.877,1.232,2.982,2.936l0.322-0.001L80.393,39.466z M61.684,49.349h0.117l0.263-0.438
		c0.575,0.425,1.139,0.638,1.863,0.638c1.245,0,2.544-0.67,2.544-2.062c0-1.394-1.234-1.946-2.342-2.404
		c-0.66-0.276-1.415-0.563-1.415-1.403c0-0.69,0.564-1.127,1.245-1.127c1.037,0,1.54,0.797,1.785,1.681h0.236l-0.052-1.842h-0.11
		l-0.244,0.416c-0.48-0.34-1.025-0.542-1.612-0.542c-1.163,0-2.111,0.701-2.111,1.914c0,1.212,1.033,1.723,2.005,2.095
		c0.772,0.309,1.614,0.691,1.614,1.658c0,0.862-0.693,1.33-1.525,1.33c-1.227,0-1.802-0.903-2.016-1.978h-0.245V49.349z
		 M56.1,46.523l1.181-3.005l1.171,3.005H56.1z M55.963,46.856h2.628l0.415,1.095c0.096,0.245,0.213,0.562,0.213,0.829
		c0,0.415-0.521,0.393-0.819,0.403v0.242c0.51-0.011,1.032-0.032,1.542-0.043c0.5,0.011,1.011,0.032,1.511,0.043v-0.242
		c-0.362-0.042-0.681-0.085-0.915-0.393c-0.191-0.245-0.426-0.893-0.553-1.17l-2.149-5.401h-0.362l-1.628,4.187
		c-0.3,0.673-0.587,1.343-0.884,2.022c-0.213,0.521-0.446,0.691-1.02,0.755v0.242c0.372-0.011,0.733-0.032,1.105-0.043
		c0.393,0.011,0.776,0.032,1.17,0.043v-0.242c-0.32-0.031-0.862,0-0.862-0.457c0-0.414,0.351-1.2,0.511-1.604L55.963,46.856z
		 M52.83,44.182c0-0.394,0-0.946,0.107-1.182c0.159-0.351,0.574-0.361,0.915-0.361v-0.252c-0.373,0.021-0.713,0.031-1.054,0.042
		c-0.329-0.011-0.668-0.021-0.997-0.042l-2.278,5.445l-2.341-5.445c-0.33,0.021-0.649,0.031-0.978,0.042
		c-0.362-0.011-0.713-0.021-1.075-0.042v0.241c0.341,0,0.777,0,0.916,0.362c0.053,0.138,0.096,0.415,0.096,0.691v4.533
		c0,0.479-0.149,0.968-0.959,0.968v0.242c0.373-0.011,0.746-0.032,1.117-0.043c0.393,0.011,0.787,0.032,1.181,0.043v-0.242
		c-0.862-0.042-1.022-0.479-1.022-1.309v-4.479h0.021l2.587,6.03h0.106c0.447-1.019,0.883-2.04,1.33-3.062l1.214-2.969h0.021v4.64
		c0,1.011-0.032,1.063-1.054,1.148v0.242c0.532-0.011,1.075-0.032,1.606-0.043c0.52,0.011,1.041,0.032,1.595,0.043v-0.242
		c-1.022-0.085-1.054-0.138-1.054-1.148V44.182z M40.452,42.551c1.879,0,2.541,1.754,2.541,3.35c0,1.585-0.577,3.36-2.477,3.36
		c-1.943,0-2.605-1.659-2.605-3.329C37.911,44.359,38.605,42.551,40.452,42.551 M40.452,49.548c2.156,0,3.862-1.51,3.862-3.689
		c0-2.106-1.78-3.595-3.819-3.595c-2.061,0-3.905,1.553-3.905,3.668C36.59,48.071,38.37,49.548,40.452,49.548 M29.821,45.973h3.804
		v1.43c0,0.341,0,1.131-0.107,1.419c-0.138,0.361-0.575,0.361-0.916,0.361v0.242c0.533-0.011,1.065-0.032,1.596-0.043
		c0.509,0.011,1.031,0.032,1.542,0.043v-0.242c-0.341,0-0.777,0-0.916-0.361c-0.106-0.288-0.106-1.078-0.106-1.419v-2.996
		c0-0.341,0-1.129,0.106-1.416c0.139-0.362,0.575-0.362,0.916-0.362v-0.241c-0.533,0.011-1.054,0.031-1.585,0.042
		c-0.52-0.011-1.031-0.031-1.553-0.042v0.241c0.341,0,0.778,0,0.916,0.362c0.107,0.287,0.107,1.075,0.107,1.416v1.233h-3.804v-1.233
		c0-0.341,0-1.129,0.106-1.416c0.139-0.362,0.576-0.362,0.917-0.362v-0.241c-0.544,0.011-1.076,0.031-1.617,0.042
		c-0.51-0.011-1.021-0.031-1.521-0.042v0.241c0.341,0,0.777,0,0.915,0.362c0.107,0.287,0.107,1.075,0.107,1.416v2.996
		c0,0.341,0,1.131-0.107,1.419c-0.138,0.361-0.574,0.361-0.915,0.361v0.242c0.521-0.011,1.064-0.032,1.595-0.043
		c0.509,0.011,1.031,0.032,1.543,0.043v-0.242c-0.341,0-0.778,0-0.917-0.361c-0.106-0.288-0.106-1.078-0.106-1.419V45.973z
		 M26.983,39.375h-9.342v2.371h0.348c0.061-1.81,0.792-1.886,2.298-1.886c0.609,0,1.278-0.046,1.278,0.41v7.21
		c0,1.126-0.213,1.552-1.689,1.612v0.348c0.822-0.016,1.613-0.043,2.418-0.059c0.836,0.016,1.688,0.043,2.525,0.059v-0.348
		c-1.476-0.061-1.689-0.486-1.689-1.612v-7.21c0-0.486,0.913-0.41,1.476-0.41c1.431,0,2.009,0.395,2.101,1.886h0.413L26.983,39.375z
		 M11.39,49.609c0.502,0,0.866-0.427,0.866-0.897c0-0.501-0.44-0.835-0.911-0.835c-0.471,0-0.821,0.425-0.821,0.881
		C10.524,49.229,10.919,49.609,11.39,49.609 M1.536,46.552c0,0.487,0,1.613-0.136,2.023c-0.168,0.533-0.806,0.518-1.293,0.518v0.348
		c0.852-0.016,1.718-0.043,2.569-0.059c0.668,0.016,1.323,0.043,1.992,0.059c0.883,0,1.978,0.03,2.799-0.394
		c0.851-0.456,1.474-1.202,1.474-2.206c0-0.882-0.456-1.612-1.17-2.1c-0.593-0.41-1.368-0.546-2.22-0.622v-0.03
		c1.156-0.35,2.28-0.942,2.28-2.328c0-2.022-2.143-2.432-3.741-2.386c-0.609,0.015-1.202,0.044-1.809,0.059
		c-0.729-0.015-1.444-0.044-2.174-0.059v0.348c0.487,0,1.125-0.015,1.293,0.518c0.136,0.411,0.136,1.537,0.136,2.023V46.552z
		 M3.101,44.362h0.472c0.776,0,1.673-0.045,2.373,0.319c0.791,0.427,1.096,1.156,1.096,2.023c0,1.445-0.67,2.328-2.161,2.328
		c-0.578,0-1.339,0.015-1.597-0.64c-0.183-0.456-0.183-1.399-0.183-1.917V44.362z M3.101,40.53c0-0.122-0.015-0.548,0.091-0.64
		c0.122-0.105,0.7-0.075,0.898-0.075c1.354,0,2.085,0.669,2.085,2.022c0,0.731-0.137,1.385-0.776,1.796
		c-0.594,0.351-1.141,0.319-1.811,0.319H3.101V40.53z"/>
	<path clip-path="url(#SVGID_4_)" d="M113.605,71.437h0.105l0.233-0.405c0.521,0.387,1.035,0.579,1.692,0.579
		c1.134,0,2.313-0.608,2.313-1.876c0-1.269-1.122-1.772-2.129-2.188c-0.601-0.252-1.288-0.513-1.288-1.278
		c0-0.629,0.513-1.025,1.133-1.025c0.94,0,1.396,0.726,1.618,1.53h0.224l-0.048-1.675h-0.107l-0.224,0.377
		c-0.436-0.31-0.93-0.492-1.463-0.492c-1.055,0-1.915,0.638-1.915,1.74c0,1.104,0.938,1.568,1.819,1.907
		c0.706,0.281,1.471,0.629,1.471,1.51c0,0.784-0.629,1.21-1.384,1.21c-1.114,0-1.637-0.822-1.83-1.8h-0.222V71.437z M108.35,69.647
		c0,0.31,0,1.026-0.096,1.287c-0.126,0.329-0.522,0.329-0.833,0.329v0.223h5.265l0.087-1.559h-0.224
		c-0.125,1.152-0.783,1.278-1.789,1.297c-0.387,0.011-0.987-0.009-1.239-0.348c-0.175-0.231-0.175-0.688-0.175-0.978V68.31
		c0.931,0,1.443,0.05,1.579,1.065h0.222c-0.01-0.396-0.019-0.803-0.037-1.2c0.019-0.435,0.027-0.88,0.037-1.315h-0.222
		c-0.058,0.696-0.252,1.249-1.579,1.19v-2.294c0-0.214-0.01-0.319,0.011-0.358c0.028-0.049,0.097-0.038,0.241-0.038h0.697
		c1.026,0,1.53,0.066,1.714,1.199h0.222v-1.461h-4.81v0.262c0.311,0,0.707,0,0.833,0.329c0.096,0.261,0.096,0.978,0.096,1.286
		V69.647z M106.396,65.582c-0.668-0.416-1.173-0.599-1.967-0.599c-1.965,0-3.386,1.422-3.386,3.387c0,1.975,1.334,3.241,3.299,3.241
		c0.833,0,1.491-0.211,2.141-0.725l0.231,0.492h0.125V69.26h-0.173c-0.291,1.161-0.784,2.129-2.14,2.129
		c-1.713,0-2.275-1.558-2.275-3.02c0-1.452,0.523-3.165,2.256-3.165c1.123,0,1.878,0.755,2.042,1.829h0.223l-0.077-1.896h-0.146
		L106.396,65.582z M94.502,69.472c0,0.378,0,0.988-0.078,1.336c-0.096,0.416-0.455,0.437-0.832,0.476v0.221
		c0.358-0.01,0.716-0.028,1.074-0.038c0.367,0.01,0.744,0.028,1.112,0.038v-0.221c-0.358-0.039-0.677-0.021-0.842-0.397
		c-0.146-0.329-0.146-1.055-0.146-1.414V66.22h0.02l3.784,4.587c0.213,0.271,0.427,0.542,0.64,0.804h0.289V67.44
		c0-0.388,0.02-1.385,0.115-1.693c0.126-0.417,0.379-0.387,0.736-0.426v-0.223c-0.357,0.011-0.687,0.028-1.025,0.038
		c-0.357-0.01-0.705-0.027-1.063-0.038v0.223c0.484,0.077,0.745,0.039,0.861,0.58c0.087,0.396,0.087,1.074,0.087,1.49v2.69h-0.02
		l-4.085-4.983c-0.252,0.011-0.513,0.028-0.764,0.038c-0.31-0.01-0.609-0.027-0.919-0.038v0.223c0.521,0.009,0.755,0.154,1.055,0.58
		V69.472z M88.415,69.647c0,0.31,0,1.026-0.097,1.287c-0.126,0.329-0.523,0.329-0.833,0.329v0.223h5.264l0.087-1.559h-0.223
		c-0.125,1.152-0.783,1.278-1.789,1.297c-0.387,0.011-0.988-0.009-1.24-0.348c-0.174-0.231-0.174-0.688-0.174-0.978V68.31
		c0.93,0,1.443,0.05,1.579,1.065h0.221c-0.009-0.396-0.018-0.803-0.037-1.2c0.02-0.435,0.028-0.88,0.037-1.315h-0.221
		c-0.059,0.696-0.252,1.249-1.579,1.19v-2.294c0-0.214-0.01-0.319,0.01-0.358c0.029-0.049,0.098-0.038,0.242-0.038h0.697
		c1.025,0,1.529,0.066,1.714,1.199h0.221v-1.461h-4.809v0.262c0.31,0,0.707,0,0.833,0.329c0.097,0.261,0.097,0.978,0.097,1.286
		V69.647z M84.998,69.667c0,0.31,0,1.026-0.096,1.287c-0.126,0.33-0.523,0.33-0.833,0.33v0.221c0.483-0.01,0.978-0.028,1.461-0.038
		c0.464,0.01,0.938,0.028,1.393,0.038v-0.221c-0.31,0-0.706,0-0.832-0.33c-0.097-0.261-0.097-0.978-0.097-1.287v-2.729
		c0-0.31,0-1.026,0.097-1.287c0.126-0.329,0.522-0.329,0.832-0.329v-0.223c-0.483,0.011-0.968,0.028-1.461,0.038
		c-0.464-0.01-0.928-0.027-1.393-0.038v0.223c0.31,0,0.707,0,0.833,0.329c0.096,0.261,0.096,0.978,0.096,1.287V69.667z
		 M82.977,65.582c-0.669-0.416-1.173-0.599-1.966-0.599c-1.965,0-3.387,1.422-3.387,3.387c0,1.975,1.334,3.241,3.3,3.241
		c0.832,0,1.49-0.211,2.14-0.725l0.231,0.492h0.125V69.26h-0.173c-0.291,1.161-0.784,2.129-2.14,2.129
		c-1.713,0-2.274-1.558-2.274-3.02c0-1.452,0.522-3.165,2.255-3.165c1.123,0,1.878,0.755,2.042,1.829h0.223l-0.077-1.896H83.13
		L82.977,65.582z M72.572,71.437h0.105l0.233-0.405c0.521,0.387,1.035,0.579,1.693,0.579c1.133,0,2.312-0.608,2.312-1.876
		c0-1.269-1.121-1.772-2.128-2.188c-0.6-0.252-1.288-0.513-1.288-1.278c0-0.629,0.513-1.025,1.133-1.025
		c0.94,0,1.396,0.726,1.618,1.53h0.224l-0.049-1.675h-0.106l-0.224,0.377c-0.436-0.31-0.93-0.492-1.463-0.492
		c-1.055,0-1.915,0.638-1.915,1.74c0,1.104,0.938,1.568,1.819,1.907c0.706,0.281,1.471,0.629,1.471,1.51
		c0,0.784-0.629,1.21-1.384,1.21c-1.114,0-1.637-0.822-1.83-1.8h-0.222V71.437z M63.533,69.472c0,0.378,0,0.988-0.077,1.336
		c-0.097,0.416-0.455,0.437-0.832,0.476v0.221c0.358-0.01,0.716-0.028,1.073-0.038c0.368,0.01,0.745,0.028,1.113,0.038v-0.221
		c-0.358-0.039-0.678-0.021-0.842-0.397c-0.145-0.329-0.145-1.055-0.145-1.414V66.22h0.019l3.785,4.587
		c0.213,0.271,0.426,0.542,0.639,0.804h0.289V67.44c0-0.388,0.02-1.385,0.116-1.693c0.126-0.417,0.378-0.387,0.736-0.426v-0.223
		c-0.358,0.011-0.687,0.028-1.024,0.038c-0.359-0.01-0.707-0.027-1.066-0.038v0.223c0.484,0.077,0.746,0.039,0.863,0.58
		c0.086,0.396,0.086,1.074,0.086,1.49v2.69h-0.019l-4.086-4.983c-0.251,0.011-0.512,0.028-0.763,0.038
		c-0.31-0.01-0.61-0.027-0.919-0.038v0.223c0.522,0.009,0.754,0.154,1.054,0.58V69.472z M58.297,65.243
		c1.704,0,2.304,1.598,2.304,3.049c0,1.443-0.523,3.059-2.246,3.059c-1.761,0-2.362-1.51-2.362-3.028
		C55.993,66.888,56.623,65.243,58.297,65.243 M58.297,71.611c1.956,0,3.513-1.373,3.513-3.357c0-1.917-1.625-3.271-3.474-3.271
		c-1.868,0-3.551,1.412-3.551,3.339C54.785,70.266,56.41,71.611,58.297,71.611 M52.095,69.667c0,0.31,0,1.026-0.097,1.287
		c-0.126,0.33-0.523,0.33-0.832,0.33v0.221c0.483-0.01,0.977-0.028,1.46-0.038c0.464,0.01,0.938,0.028,1.393,0.038v-0.221
		c-0.309,0-0.706,0-0.832-0.33c-0.097-0.261-0.097-0.978-0.097-1.287v-2.729c0-0.31,0-1.026,0.097-1.287
		c0.126-0.329,0.523-0.329,0.832-0.329v-0.223c-0.484,0.011-0.967,0.028-1.46,0.038c-0.464-0.01-0.929-0.027-1.393-0.038v0.223
		c0.309,0,0.706,0,0.832,0.329c0.097,0.261,0.097,0.978,0.097,1.287V69.667z M50.607,65.098h-5.945v1.51h0.222
		c0.038-1.152,0.503-1.2,1.462-1.2c0.387,0,0.813-0.029,0.813,0.261v4.588c0,0.717-0.135,0.988-1.075,1.027v0.221
		c0.523-0.01,1.027-0.028,1.539-0.038c0.532,0.01,1.074,0.028,1.607,0.038v-0.221c-0.94-0.039-1.075-0.311-1.075-1.027v-4.588
		c0-0.309,0.581-0.261,0.939-0.261c0.911,0,1.279,0.252,1.337,1.2h0.263L50.607,65.098z M40.325,68.854l1.075-2.729l1.064,2.729
		H40.325z M40.2,69.163h2.39l0.378,0.997c0.087,0.223,0.193,0.513,0.193,0.756c0,0.377-0.474,0.358-0.745,0.368v0.221
		c0.465-0.01,0.939-0.028,1.403-0.038c0.455,0.01,0.919,0.028,1.374,0.038v-0.221c-0.329-0.039-0.619-0.078-0.832-0.359
		c-0.174-0.222-0.387-0.812-0.503-1.064l-1.955-4.915h-0.329l-1.48,3.803c-0.272,0.618-0.533,1.228-0.804,1.848
		c-0.193,0.475-0.406,0.629-0.928,0.688v0.221c0.338-0.01,0.667-0.028,1.005-0.038c0.358,0.01,0.707,0.028,1.065,0.038v-0.221
		c-0.291-0.03-0.784,0-0.784-0.417c0-0.378,0.319-1.094,0.464-1.462L40.2,69.163z M37.354,66.734c0-0.358,0-0.861,0.097-1.074
		c0.145-0.32,0.523-0.329,0.832-0.329v-0.232c-0.338,0.021-0.648,0.028-0.958,0.038c-0.299-0.01-0.609-0.018-0.908-0.038
		l-2.072,4.955l-2.129-4.955c-0.3,0.021-0.591,0.028-0.89,0.038c-0.329-0.01-0.648-0.018-0.977-0.038v0.223
		c0.31,0,0.706,0,0.832,0.329c0.049,0.126,0.087,0.377,0.087,0.629v4.124c0,0.435-0.135,0.881-0.871,0.881v0.221
		c0.339-0.01,0.678-0.028,1.016-0.038c0.357,0.01,0.715,0.028,1.074,0.038v-0.221c-0.784-0.039-0.93-0.437-0.93-1.191v-4.075h0.02
		l2.352,5.487h0.097c0.406-0.928,0.803-1.856,1.21-2.787l1.103-2.7h0.02v4.221c0,0.92-0.029,0.968-0.959,1.046v0.221
		c0.484-0.01,0.978-0.028,1.461-0.038c0.474,0.01,0.948,0.028,1.451,0.038v-0.221c-0.929-0.078-0.958-0.126-0.958-1.046V66.734z
		 M27.31,68.36c0.958-0.086,1.751-0.619,1.751-1.664c0-1.347-1.112-1.598-2.216-1.598c-0.407,0.011-0.823,0.028-1.229,0.038
		c-0.551-0.01-1.112-0.027-1.664-0.038v0.223c0.31,0,0.716-0.011,0.823,0.329c0.087,0.261,0.087,0.978,0.087,1.288v2.729
		c0,0.309,0,1.026-0.087,1.287c-0.107,0.33-0.513,0.33-0.823,0.33v0.221c0.484-0.01,0.968-0.028,1.451-0.038
		c0.464,0.01,0.919,0.028,1.365,0.038v-0.221c-0.31,0-0.707,0.009-0.824-0.33c-0.087-0.261-0.087-0.979-0.087-1.287v-1.143
		c0.514,0,0.475,0.058,0.794,0.426l1.607,1.995l0.455,0.56c0.241-0.01,0.483-0.028,0.725-0.038c0.29,0.01,0.581,0.028,0.871,0.038
		v-0.221c-0.494-0.078-0.639-0.213-0.948-0.572L27.31,68.36z M25.857,65.737c0-0.106-0.019-0.29,0.107-0.349
		c0.087-0.039,0.513-0.01,0.629-0.01c0.872,0,1.356,0.601,1.356,1.452c0,1.404-0.881,1.433-2.092,1.433V65.737z M19.713,65.243
		c1.703,0,2.304,1.598,2.304,3.049c0,1.443-0.523,3.059-2.246,3.059c-1.762,0-2.362-1.51-2.362-3.028
		C17.409,66.888,18.038,65.243,19.713,65.243 M19.713,71.611c1.955,0,3.512-1.373,3.512-3.357c0-1.917-1.625-3.271-3.474-3.271
		c-1.868,0-3.551,1.412-3.551,3.339C16.2,70.266,17.825,71.611,19.713,71.611 M15.541,65.098c-1.036,0.011-2.07,0.028-3.106,0.038
		c-0.571-0.01-1.141-0.027-1.732-0.038v0.223c0.31,0,0.707,0,0.833,0.329c0.096,0.261,0.096,0.978,0.096,1.288v2.729
		c0,0.309,0,1.026-0.096,1.287c-0.126,0.33-0.523,0.33-0.833,0.33v0.221c0.513-0.01,0.997-0.028,1.49-0.038
		c0.493,0.01,0.997,0.028,1.491,0.038v-0.221c-0.339-0.021-0.814,0.057-0.959-0.33c-0.097-0.261-0.097-0.979-0.097-1.278v-1.22
		c0.93,0,1.443,0.02,1.579,1.036h0.221c-0.01-0.397-0.018-0.803-0.037-1.199c0.019-0.436,0.027-0.881,0.037-1.317h-0.221
		c-0.058,0.698-0.252,1.23-1.579,1.173v-2.169c0-0.281,0.019-0.455,0.077-0.494c0.117-0.067,0.301-0.048,0.688-0.048
		c0.465,0,1.016-0.011,1.432,0.174c0.435,0.184,0.532,0.591,0.648,1.007h0.223L15.541,65.098z M4.432,69.472
		c0,0.378,0,0.988-0.077,1.336c-0.097,0.416-0.455,0.437-0.833,0.476v0.221c0.359-0.01,0.717-0.028,1.074-0.038
		c0.367,0.01,0.745,0.028,1.113,0.038v-0.221c-0.358-0.039-0.678-0.021-0.842-0.397c-0.146-0.329-0.146-1.055-0.146-1.414V66.22
		h0.02l3.785,4.587c0.213,0.271,0.426,0.542,0.639,0.804h0.289V67.44c0-0.388,0.019-1.385,0.116-1.693
		c0.126-0.417,0.377-0.387,0.735-0.426v-0.223c-0.358,0.011-0.687,0.028-1.025,0.038c-0.357-0.01-0.706-0.027-1.064-0.038v0.223
		c0.484,0.077,0.745,0.039,0.861,0.58c0.088,0.396,0.088,1.074,0.088,1.49v2.69h-0.02L5.06,65.098
		c-0.252,0.011-0.512,0.028-0.763,0.038c-0.31-0.01-0.61-0.027-0.92-0.038v0.223c0.523,0.009,0.755,0.154,1.055,0.58V69.472z
		 M0.929,69.667c0,0.31,0,1.026-0.097,1.287c-0.126,0.33-0.522,0.33-0.832,0.33v0.221c0.484-0.01,0.977-0.028,1.461-0.038
		c0.464,0.01,0.938,0.028,1.393,0.038v-0.221c-0.31,0-0.707,0-0.833-0.33c-0.096-0.261-0.096-0.978-0.096-1.287v-2.729
		c0-0.31,0-1.026,0.096-1.287c0.126-0.329,0.523-0.329,0.833-0.329v-0.223c-0.484,0.011-0.968,0.028-1.461,0.038
		C0.929,65.126,0.464,65.109,0,65.098v0.223c0.31,0,0.706,0,0.832,0.329c0.097,0.261,0.097,0.978,0.097,1.287V69.667z"/>
	<path clip-path="url(#SVGID_4_)" d="M117.408,54.927c0-0.078,0-0.242,0.058-0.3c0.087-0.087,0.465-0.068,0.581-0.068
		c2.071,0,2.623,1.316,2.623,3.233c0,1.432-0.329,2.651-2.023,2.651c-0.367,0-0.861-0.039-1.084-0.367
		c-0.193-0.28-0.154-0.745-0.154-1.074V54.927z M116.412,58.867c0,0.31,0,1.025-0.087,1.287c-0.106,0.329-0.514,0.329-0.823,0.329
		v0.222c0.436-0.01,0.871-0.028,1.316-0.037c0.569,0.009,1.15,0.027,1.722,0.037c1.995,0.049,3.339-1.016,3.339-3.067
		c0-2.1-1.548-3.377-3.59-3.338c-0.523,0.009-1.046,0.028-1.568,0.037c-0.406-0.009-0.822-0.028-1.219-0.037v0.241
		c0.31,0,0.717-0.011,0.823,0.329c0.087,0.261,0.087,0.977,0.087,1.286V58.867z M109.144,58.673c0,0.377,0,0.987-0.077,1.336
		c-0.097,0.416-0.454,0.435-0.831,0.474v0.222c0.357-0.01,0.716-0.028,1.072-0.037c0.367,0.009,0.745,0.027,1.113,0.037v-0.222
		c-0.358-0.039-0.678-0.02-0.842-0.396c-0.146-0.329-0.146-1.056-0.146-1.413V55.42h0.021l3.785,4.587
		c0.213,0.271,0.426,0.542,0.639,0.804h0.289V56.64c0-0.388,0.019-1.384,0.116-1.694c0.126-0.416,0.377-0.387,0.734-0.426v-0.221
		c-0.357,0.009-0.687,0.028-1.024,0.037c-0.357-0.009-0.706-0.028-1.064-0.037v0.221c0.484,0.078,0.745,0.039,0.862,0.581
		c0.087,0.397,0.087,1.074,0.087,1.49v2.691h-0.021l-4.085-4.983c-0.252,0.009-0.512,0.028-0.763,0.037
		c-0.31-0.009-0.61-0.028-0.92-0.037v0.221c0.523,0.01,0.755,0.155,1.055,0.581V58.673z M103.229,58.054l1.074-2.729l1.065,2.729
		H103.229z M103.104,58.362h2.391l0.377,0.998c0.087,0.223,0.193,0.514,0.193,0.756c0,0.377-0.474,0.357-0.744,0.367v0.222
		c0.464-0.01,0.938-0.028,1.402-0.037c0.455,0.009,0.919,0.027,1.374,0.037v-0.222c-0.329-0.039-0.619-0.078-0.832-0.357
		c-0.174-0.224-0.387-0.814-0.503-1.066l-1.955-4.915h-0.329l-1.479,3.803c-0.272,0.619-0.533,1.229-0.804,1.849
		c-0.194,0.475-0.406,0.63-0.929,0.688v0.222c0.338-0.01,0.667-0.028,1.005-0.037c0.358,0.009,0.706,0.027,1.064,0.037v-0.222
		c-0.29-0.028-0.783,0-0.783-0.417c0-0.377,0.319-1.094,0.464-1.462L103.104,58.362z M97.979,54.357h-0.106l-0.204,0.435
		c-0.581-0.436-1.298-0.608-2.014-0.608c-2.024,0-3.389,1.499-3.389,3.475c0,1.915,1.364,3.153,3.252,3.153
		c0.553,0,1.026-0.116,1.521-0.367c0.599-0.328,0.657-0.406,1.363-0.406v-1.026c0-0.484,0.076-0.746,0.6-0.736v-0.221h-2.535v0.221
		c0.591,0.048,0.833,0.175,0.833,0.823c0,0.997-0.649,1.453-1.617,1.453c-1.646,0-2.207-1.424-2.207-2.875
		c0-1.529,0.407-3.272,2.294-3.272c1.124,0,1.831,0.784,1.899,1.868h0.204L97.979,54.357z M85.724,58.673
		c0,0.377,0,0.987-0.077,1.336c-0.097,0.416-0.455,0.435-0.832,0.474v0.222c0.358-0.01,0.717-0.028,1.073-0.037
		c0.368,0.009,0.745,0.027,1.113,0.037v-0.222c-0.358-0.039-0.678-0.02-0.842-0.396c-0.146-0.329-0.146-1.056-0.146-1.413V55.42
		h0.02l3.785,4.587c0.213,0.271,0.426,0.542,0.639,0.804h0.289V56.64c0-0.388,0.019-1.384,0.116-1.694
		c0.126-0.416,0.377-0.387,0.735-0.426v-0.221c-0.358,0.009-0.688,0.028-1.025,0.037c-0.357-0.009-0.706-0.028-1.064-0.037v0.221
		c0.484,0.078,0.746,0.039,0.862,0.581c0.087,0.397,0.087,1.074,0.087,1.49v2.691h-0.021l-4.085-4.983
		c-0.251,0.009-0.512,0.028-0.763,0.037c-0.31-0.009-0.61-0.028-0.919-0.037v0.221c0.521,0.01,0.754,0.155,1.054,0.581V58.673z
		 M82.221,58.867c0,0.31,0,1.025-0.097,1.287c-0.125,0.329-0.522,0.329-0.832,0.329v0.222c0.484-0.01,0.978-0.028,1.461-0.037
		c0.464,0.009,0.938,0.027,1.393,0.037v-0.222c-0.31,0-0.707,0-0.832-0.329c-0.097-0.262-0.097-0.978-0.097-1.287v-2.729
		c0-0.31,0-1.026,0.097-1.288c0.125-0.329,0.522-0.329,0.832-0.329v-0.221c-0.483,0.009-0.968,0.028-1.461,0.037
		c-0.464-0.009-0.928-0.028-1.393-0.037v0.221c0.31,0,0.707,0,0.832,0.329c0.097,0.262,0.097,0.979,0.097,1.288V58.867z
		 M80.732,54.299h-5.943v1.509h0.221c0.039-1.152,0.504-1.201,1.462-1.201c0.389,0,0.814-0.028,0.814,0.263v4.588
		c0,0.716-0.137,0.986-1.075,1.025v0.222c0.523-0.01,1.026-0.028,1.539-0.037c0.531,0.009,1.074,0.027,1.605,0.037v-0.222
		c-0.938-0.039-1.074-0.31-1.074-1.025V54.87c0-0.311,0.581-0.263,0.939-0.263c0.91,0,1.279,0.252,1.337,1.201h0.264L80.732,54.299z
		 M73.336,56.35c0-0.388,0-1.133,0.135-1.48c0.136-0.35,0.476-0.34,0.784-0.35v-0.221c-0.367,0.009-0.725,0.028-1.083,0.037
		c-0.377-0.009-0.745-0.028-1.122-0.037v0.221c0.377,0,0.764,0.039,0.9,0.445c0.097,0.3,0.097,1.046,0.097,1.385v2.119
		c0,1.298-0.668,1.994-2.004,1.994c-1.326,0-1.811-0.706-1.811-1.945v-2.381c0-0.31,0-1.026,0.088-1.288
		c0.115-0.339,0.521-0.329,0.832-0.329v-0.221c-0.494,0.009-0.978,0.028-1.471,0.037c-0.455-0.009-0.919-0.028-1.373-0.037v0.221
		c0.309,0,0.705,0,0.832,0.329c0.096,0.262,0.096,0.979,0.096,1.288v2.313c0,1.752,0.842,2.36,2.574,2.36
		c1.839,0,2.525-0.909,2.525-2.671V56.35z M63.6,55.034c0-0.242-0.009-0.349,0.068-0.397c0.097-0.058,0.484-0.058,0.6-0.058
		c0.94,0,1.384,0.483,1.384,1.423c0,1.046-0.494,1.472-1.49,1.472c-0.184,0-0.378-0.029-0.562-0.039V55.034z M63.6,57.695
		c0.039,0,0.475,0.028,0.649,0.028c1.151,0,2.517-0.337,2.517-1.751c0-1.229-1.181-1.635-2.226-1.673
		c-0.465,0.009-0.92,0.028-1.384,0.037c-0.484-0.009-0.967-0.028-1.461-0.037v0.221c0.31,0,0.706-0.01,0.823,0.329
		c0.087,0.262,0.087,0.979,0.087,1.298v2.72c0,0.31,0,1.025-0.087,1.287c-0.107,0.329-0.513,0.329-0.823,0.329v0.222
		c0.484-0.01,0.948-0.028,1.422-0.037c0.503,0.009,1.006,0.027,1.51,0.037v-0.222c-0.339-0.02-0.794,0.048-0.93-0.329
		C63.6,59.892,63.6,59.176,63.6,58.867V57.695z M60.194,55.933c0-0.357,0-0.861,0.097-1.074c0.145-0.319,0.522-0.329,0.832-0.329
		v-0.23c-0.339,0.019-0.649,0.028-0.958,0.037c-0.3-0.009-0.609-0.019-0.909-0.037l-2.071,4.954l-2.13-4.954
		c-0.3,0.019-0.59,0.028-0.889,0.037c-0.329-0.009-0.649-0.019-0.978-0.037v0.221c0.31,0,0.707,0,0.833,0.329
		c0.048,0.126,0.087,0.378,0.087,0.629v4.124c0,0.437-0.136,0.881-0.871,0.881v0.222c0.338-0.01,0.677-0.028,1.015-0.037
		c0.358,0.009,0.716,0.027,1.074,0.037v-0.222c-0.784-0.039-0.929-0.436-0.929-1.19v-4.075h0.019l2.352,5.487h0.097
		c0.407-0.929,0.804-1.857,1.21-2.786l1.104-2.701h0.019v4.22c0,0.92-0.029,0.968-0.958,1.046v0.222
		c0.484-0.01,0.978-0.028,1.461-0.037c0.473,0.009,0.948,0.027,1.451,0.037v-0.222c-0.929-0.078-0.958-0.126-0.958-1.046V55.933z
		 M48.939,54.443c1.704,0,2.304,1.598,2.304,3.05c0,1.441-0.523,3.059-2.246,3.059c-1.761,0-2.362-1.51-2.362-3.03
		C46.635,56.088,47.265,54.443,48.939,54.443 M48.939,60.811c1.956,0,3.513-1.374,3.513-3.357c0-1.917-1.625-3.271-3.474-3.271
		c-1.868,0-3.551,1.412-3.551,3.338C45.427,59.466,47.052,60.811,48.939,60.811 M44.198,54.781
		c-0.668-0.415-1.172-0.598-1.965-0.598c-1.965,0-3.387,1.421-3.387,3.386c0,1.976,1.334,3.242,3.3,3.242
		c0.832,0,1.49-0.212,2.139-0.725l0.232,0.492h0.125V58.46h-0.173c-0.291,1.161-0.784,2.129-2.139,2.129
		c-1.714,0-2.275-1.559-2.275-3.021c0-1.451,0.522-3.165,2.255-3.165c1.123,0,1.878,0.756,2.042,1.829h0.222l-0.077-1.896h-0.145
		L44.198,54.781z M34.965,56.862h0.822l0.068-0.212h-0.842c0.145-0.513,0.406-2.197,1.151-2.197c0.204,0,0.252,0.126,0.291,0.301
		c0.048,0.174,0.116,0.348,0.338,0.348c0.155,0,0.242-0.135,0.242-0.281c0-0.396-0.493-0.578-0.822-0.578
		c-1.229,0-1.635,1.45-1.926,2.408h-0.783l-0.068,0.212h0.793l-1.335,5.208c-0.126,0.319-0.377,1.017-0.813,1.017
		c-0.464,0-0.213-0.619-0.638-0.619c-0.155,0-0.262,0.125-0.262,0.271c0,0.406,0.484,0.561,0.823,0.561
		c1.49,0,1.925-2.226,2.186-3.28L34.965,56.862z M30.368,60.599c-0.456,0-0.659-0.29-0.659-0.726c0-0.794,0.571-3.146,1.588-3.146
		c0.397,0,0.591,0.368,0.591,0.716C31.888,58.256,31.433,60.599,30.368,60.599 M30.358,60.811c1.259,0,2.225-1.596,2.225-2.729
		c0-0.813-0.434-1.567-1.334-1.567c-1.307,0-2.235,1.761-2.235,2.884C29.014,60.231,29.516,60.811,30.358,60.811 M24.009,58.895
		c0.155-0.581,0.736-2.168,1.443-2.168c0.194,0,0.3,0.126,0.3,0.319C25.752,57.909,24.697,58.595,24.009,58.895 M25.704,59.437
		c-0.349,0.465-0.814,1.162-1.462,1.162c-0.33,0-0.475-0.252-0.475-0.552c0-0.311,0.078-0.61,0.165-0.89l0.155-0.068
		c0.774-0.32,2.196-0.892,2.196-1.907c0-0.407-0.299-0.667-0.695-0.667c-1.356,0-2.516,1.974-2.516,3.193
		c0,0.668,0.405,1.103,1.082,1.103c0.775,0,1.327-0.657,1.724-1.248L25.704,59.437z M20.516,59.515c-0.397,0-0.6-0.349-0.6-0.707
		c0-0.59,0.387-2.081,1.133-2.081c0.368,0,0.552,0.358,0.552,0.697C21.601,58.024,21.3,59.515,20.516,59.515 M22.258,61.934
		c0-1.81-2.865-0.938-2.865-1.801c0-0.397,0.765-0.406,1.046-0.406c1.074-0.02,1.857-0.977,1.857-2.022
		c0-0.175-0.038-0.349-0.106-0.514c0.106-0.097,0.242-0.241,0.406-0.241c0.145,0,0.126,0.115,0.145,0.232
		c0.02,0.164,0.155,0.29,0.32,0.29c0.213,0,0.377-0.184,0.377-0.387c0-0.31-0.309-0.522-0.609-0.522
		c-0.301,0-0.562,0.203-0.755,0.406c-0.251-0.31-0.561-0.454-0.967-0.454c-1.007,0-1.887,1.015-1.887,1.983
		c0,0.436,0.28,0.813,0.647,1.036c-0.484,0.096-1.054,0.338-1.054,0.919c0,0.765,1.142,0.881,1.693,0.968
		c0.494,0.067,1.22,0.105,1.22,0.765c0,0.727-0.842,0.9-1.423,0.9c-0.648,0-1.394-0.194-1.394-0.958
		c0-0.311,0.185-0.562,0.475-0.668c-0.125-0.068-0.242-0.117-0.388-0.117c-0.396,0-0.715,0.32-0.715,0.717
		c0,0.968,1.151,1.238,1.944,1.238C21.116,63.298,22.258,63,22.258,61.934 M16.461,58.895c0.155-0.581,0.736-2.168,1.443-2.168
		c0.193,0,0.3,0.126,0.3,0.319C18.204,57.909,17.148,58.595,16.461,58.895 M18.155,59.437c-0.348,0.465-0.813,1.162-1.462,1.162
		c-0.329,0-0.474-0.252-0.474-0.552c0-0.311,0.077-0.61,0.164-0.89l0.155-0.068c0.775-0.32,2.197-0.892,2.197-1.907
		c0-0.407-0.299-0.667-0.696-0.667c-1.356,0-2.516,1.974-2.516,3.193c0,0.668,0.406,1.103,1.083,1.103
		c0.775,0,1.327-0.657,1.723-1.248L18.155,59.437z M15.667,54.242l-1.616,0.096l-0.058,0.212c0.222,0.02,0.697-0.038,0.697,0.31
		c0,0.106-0.068,0.301-0.097,0.397l-0.987,3.242c-0.116,0.368-0.367,1.19-0.367,1.549c0,0.426,0.222,0.764,0.676,0.764
		c0.717,0,1.133-0.87,1.413-1.402l-0.222-0.106c-0.126,0.29-0.668,1.22-0.987,1.22c-0.146,0-0.184-0.165-0.184-0.28
		c0-0.523,0.416-1.791,0.58-2.333L15.667,54.242z M13.151,54.242l-1.616,0.096l-0.058,0.212c0.222,0.02,0.696-0.038,0.696,0.31
		c0,0.106-0.067,0.301-0.096,0.397l-0.987,3.242c-0.116,0.368-0.367,1.19-0.367,1.549c0,0.426,0.222,0.764,0.676,0.764
		c0.716,0,1.133-0.87,1.413-1.402l-0.222-0.106c-0.126,0.29-0.668,1.22-0.988,1.22c-0.145,0-0.183-0.165-0.183-0.28
		c0-0.523,0.416-1.791,0.58-2.333L13.151,54.242z M7.916,60.599c-0.455,0-0.659-0.29-0.659-0.726c0-0.794,0.571-3.146,1.588-3.146
		c0.397,0,0.591,0.368,0.591,0.716C9.436,58.256,8.981,60.599,7.916,60.599 M7.906,60.811c1.259,0,2.225-1.596,2.225-2.729
		c0-0.813-0.434-1.567-1.334-1.567c-1.307,0-2.235,1.761-2.235,2.884C6.562,60.231,7.064,60.811,7.906,60.811 M6.01,58.664H5.807
		c-0.533,0.997-1.017,1.936-2.304,1.936c-1.152,0-1.636-0.803-1.636-1.868c0-1.49,0.977-4.308,2.797-4.308
		c1.094,0,1.298,0.823,1.356,1.743h0.192l0.368-1.8H6.483l-0.338,0.348c-0.522-0.32-0.909-0.502-1.539-0.502
		c-2.1,0-3.706,2.157-3.706,4.141c0,1.443,0.957,2.458,2.409,2.458c0.784,0,1.317-0.153,1.965-0.608l0.116,0.502h0.107L6.01,58.664z
		"/>
</g>
</svg>
